<svg width="61" height="57" viewBox="0 0 61 57" fill="none" xmlns="http://www.w3.org/2000/svg">
<path d="M33.4806 13.7134C42.508 13.7134 49.0494 21.1765 49.0494 29.4584C49.0494 32.1035 48.2881 34.8274 46.9518 37.3151C46.7032 37.7245 46.6722 38.244 46.8431 38.7321L47.8841 42.259C48.1172 43.1092 47.4024 43.739 46.61 43.4871L43.4714 42.5424C42.6168 42.259 41.9487 42.6211 41.1547 43.1092C38.8862 44.4633 36.0599 45.1561 33.5117 45.1561C25.8049 45.1561 17.9739 39.1258 17.9739 29.4111C17.9739 21.0348 24.6551 13.7134 33.4806 13.7134Z" fill="url(#paint0_linear_401_7616)"/>
<g opacity="0.5" filter="url(#filter0_f_401_7616)">
<path d="M43.4021 29.6153C43.4021 35.2324 38.9095 39.7839 33.3673 39.7839C27.8251 39.7839 23.3325 35.2324 23.3325 29.6153C23.3325 24.0002 27.8251 19.4467 33.3673 19.4467C38.9095 19.4467 43.4021 24.0002 43.4021 29.6153Z" fill="#8237FF"/>
</g>
<g filter="url(#filter1_b_401_7616)">
<mask id="path-3-outside-1_401_7616" maskUnits="userSpaceOnUse" x="0.950562" y="0.41272" width="42" height="43" fill="black">
<rect fill="white" x="0.950562" y="0.41272" width="42" height="43"/>
<path d="M21.817 1.41272C10.2977 1.41272 1.95056 10.9359 1.95056 21.5039C1.95056 24.8792 2.92208 28.355 4.62718 31.5294C4.94441 32.0518 4.98406 32.7148 4.76597 33.3376L3.43757 37.838C3.14017 38.9229 4.0522 39.7266 5.06337 39.4051L9.06839 38.1997C10.1589 37.838 11.0114 38.3001 12.0246 38.9229C14.9193 40.6508 18.5258 41.5348 21.7774 41.5348C31.6115 41.5348 41.6042 33.8399 41.6042 21.4436C41.6042 10.7551 33.0787 1.41272 21.817 1.41272Z"/>
</mask>
<path d="M21.817 1.41272C10.2977 1.41272 1.95056 10.9359 1.95056 21.5039C1.95056 24.8792 2.92208 28.355 4.62718 31.5294C4.94441 32.0518 4.98406 32.7148 4.76597 33.3376L3.43757 37.838C3.14017 38.9229 4.0522 39.7266 5.06337 39.4051L9.06839 38.1997C10.1589 37.838 11.0114 38.3001 12.0246 38.9229C14.9193 40.6508 18.5258 41.5348 21.7774 41.5348C31.6115 41.5348 41.6042 33.8399 41.6042 21.4436C41.6042 10.7551 33.0787 1.41272 21.817 1.41272Z" fill="#72DC60" fill-opacity="0.35"/>
<path d="M21.817 2.41272C22.3693 2.41272 22.817 1.965 22.817 1.41272C22.817 0.860435 22.3693 0.41272 21.817 0.41272V2.41272ZM4.62718 31.5294L3.74623 32.0026C3.75456 32.0181 3.76331 32.0334 3.77245 32.0485L4.62718 31.5294ZM4.76597 33.3376L3.82216 33.0071C3.81667 33.0228 3.81158 33.0386 3.80688 33.0545L4.76597 33.3376ZM3.43757 37.838L2.47848 37.5549C2.47664 37.5611 2.47487 37.5674 2.47315 37.5736L3.43757 37.838ZM5.06337 39.4051L4.77515 38.4476C4.77023 38.449 4.76531 38.4506 4.7604 38.4521L5.06337 39.4051ZM9.06839 38.1997L9.35661 39.1572C9.3655 39.1545 9.37435 39.1517 9.38317 39.1488L9.06839 38.1997ZM12.0246 38.9229L11.5008 39.7749L11.512 39.7816L12.0246 38.9229ZM21.817 0.41272C21.2647 0.41272 20.817 0.860435 20.817 1.41272C20.817 1.965 21.2647 2.41272 21.817 2.41272V0.41272ZM21.817 0.41272C9.70026 0.41272 0.950562 10.4299 0.950562 21.5039H2.95056C2.95056 11.442 10.895 2.41272 21.817 2.41272V0.41272ZM0.950562 21.5039C0.950562 25.0675 1.97472 28.7046 3.74623 32.0026L5.50814 31.0562C3.86943 28.0054 2.95056 24.6909 2.95056 21.5039H0.950562ZM3.77245 32.0485C3.91051 32.2758 3.95774 32.6199 3.82216 33.0071L5.70978 33.6681C6.01039 32.8096 5.97831 31.8277 5.48191 31.0103L3.77245 32.0485ZM3.80688 33.0545L2.47848 37.5549L4.39666 38.1211L5.72506 33.6207L3.80688 33.0545ZM2.47315 37.5736C2.23255 38.4514 2.47137 39.3138 3.07711 39.8797C3.67386 40.4372 4.53665 40.6219 5.36634 40.3581L4.7604 38.4521C4.57893 38.5098 4.48011 38.4534 4.4424 38.4182C4.42008 38.3974 4.40105 38.3688 4.39013 38.3279C4.37947 38.288 4.37114 38.2149 4.40199 38.1024L2.47315 37.5736ZM5.35159 40.3627L9.35661 39.1572L8.78017 37.2421L4.77515 38.4476L5.35159 40.3627ZM9.38317 39.1488C9.98686 38.9486 10.4606 39.1354 11.5009 39.7748L12.5483 38.071C11.5622 37.4649 10.3309 36.7274 8.75361 37.2505L9.38317 39.1488ZM11.512 39.7816C14.5769 41.611 18.3639 42.5348 21.7774 42.5348V40.5348C18.6877 40.5348 15.2616 39.6905 12.5371 38.0643L11.512 39.7816ZM21.7774 42.5348C32.0961 42.5348 42.6042 34.4575 42.6042 21.4436H40.6042C40.6042 33.2222 31.1269 40.5348 21.7774 40.5348V42.5348ZM42.6042 21.4436C42.6042 10.2378 33.6653 0.41272 21.817 0.41272V2.41272C32.492 2.41272 40.6042 11.2724 40.6042 21.4436H42.6042Z" fill="url(#paint1_linear_401_7616)" mask="url(#path-3-outside-1_401_7616)"/>
</g>
<g filter="url(#filter2_bd_401_7616)">
<mask id="path-5-inside-2_401_7616" fill="white">
<path fill-rule="evenodd" clip-rule="evenodd" d="M21.7386 24.0954C20.3309 24.0753 19.2008 22.9301 19.2008 21.5037C19.2008 20.0973 20.3507 18.932 21.7386 18.9521C23.1463 18.9521 24.2764 20.0973 24.2764 21.5238C24.2764 22.9301 23.1463 24.0954 21.7386 24.0954ZM12.5978 24.0956C11.2099 24.0956 10.0599 22.9303 10.0599 21.5239C10.0599 20.0974 11.1901 18.9522 12.5978 18.9522C14.0055 18.9522 15.1356 20.0974 15.1356 21.5239C15.1356 22.9303 14.0055 24.0755 12.5978 24.0956ZM28.3406 21.5238C28.3406 22.9302 29.4708 24.0955 30.8785 24.0955C32.2862 24.0955 33.4163 22.9302 33.4163 21.5238C33.4163 20.0973 32.2862 18.9521 30.8785 18.9521C29.4708 18.9521 28.3406 20.0973 28.3406 21.5238Z"/>
</mask>
<path fill-rule="evenodd" clip-rule="evenodd" d="M21.7386 24.0954C20.3309 24.0753 19.2008 22.9301 19.2008 21.5037C19.2008 20.0973 20.3507 18.932 21.7386 18.9521C23.1463 18.9521 24.2764 20.0973 24.2764 21.5238C24.2764 22.9301 23.1463 24.0954 21.7386 24.0954ZM12.5978 24.0956C11.2099 24.0956 10.0599 22.9303 10.0599 21.5239C10.0599 20.0974 11.1901 18.9522 12.5978 18.9522C14.0055 18.9522 15.1356 20.0974 15.1356 21.5239C15.1356 22.9303 14.0055 24.0755 12.5978 24.0956ZM28.3406 21.5238C28.3406 22.9302 29.4708 24.0955 30.8785 24.0955C32.2862 24.0955 33.4163 22.9302 33.4163 21.5238C33.4163 20.0973 32.2862 18.9521 30.8785 18.9521C29.4708 18.9521 28.3406 20.0973 28.3406 21.5238Z" fill="url(#paint2_linear_401_7616)"/>
<path d="M21.7386 24.0954L21.7329 24.4954H21.7386V24.0954ZM21.7386 18.9521L21.7328 19.3521H21.7386V18.9521ZM12.5978 24.0956V24.4956L12.6035 24.4955L12.5978 24.0956ZM18.8008 21.5037C18.8008 23.1472 20.1049 24.4722 21.7329 24.4954L21.7443 23.6955C20.5569 23.6785 19.6008 22.7131 19.6008 21.5037H18.8008ZM21.7444 18.5521C20.1249 18.5287 18.8008 19.8826 18.8008 21.5037H19.6008C19.6008 20.3119 20.5765 19.3353 21.7328 19.3521L21.7444 18.5521ZM24.6764 21.5238C24.6764 19.8814 23.3722 18.5521 21.7386 18.5521V19.3521C22.9204 19.3521 23.8764 20.3132 23.8764 21.5238H24.6764ZM21.7386 24.4954C23.3742 24.4954 24.6764 23.144 24.6764 21.5238H23.8764C23.8764 22.7163 22.9184 23.6954 21.7386 23.6954V24.4954ZM9.65994 21.5239C9.65994 23.1462 10.984 24.4956 12.5978 24.4956V23.6956C11.4358 23.6956 10.4599 22.7144 10.4599 21.5239H9.65994ZM12.5978 18.5522C10.9642 18.5522 9.65994 19.8815 9.65994 21.5239H10.4599C10.4599 20.3133 11.416 19.3522 12.5978 19.3522V18.5522ZM15.5356 21.5239C15.5356 19.8815 14.2314 18.5522 12.5978 18.5522V19.3522C13.7796 19.3522 14.7356 20.3133 14.7356 21.5239H15.5356ZM12.6035 24.4955C14.2295 24.4723 15.5356 23.1493 15.5356 21.5239H14.7356C14.7356 22.7112 13.7815 23.6786 12.5921 23.6956L12.6035 24.4955ZM30.8785 23.6955C29.6987 23.6955 28.7406 22.7163 28.7406 21.5238H27.9406C27.9406 23.144 29.2429 24.4955 30.8785 24.4955V23.6955ZM33.0163 21.5238C33.0163 22.7163 32.0583 23.6955 30.8785 23.6955V24.4955C32.5141 24.4955 33.8163 23.144 33.8163 21.5238H33.0163ZM30.8785 19.3521C32.0603 19.3521 33.0163 20.3132 33.0163 21.5238H33.8163C33.8163 19.8814 32.5121 18.5521 30.8785 18.5521V19.3521ZM28.7406 21.5238C28.7406 20.3132 29.6967 19.3521 30.8785 19.3521V18.5521C29.2449 18.5521 27.9406 19.8814 27.9406 21.5238H28.7406Z" fill="url(#paint3_linear_401_7616)" mask="url(#path-5-inside-2_401_7616)"/>
</g>
<defs>
<filter id="filter0_f_401_7616" x="6.33252" y="2.44672" width="54.0696" height="54.3372" filterUnits="userSpaceOnUse" color-interpolation-filters="sRGB">
<feFlood flood-opacity="0" result="BackgroundImageFix"/>
<feBlend mode="normal" in="SourceGraphic" in2="BackgroundImageFix" result="shape"/>
<feGaussianBlur stdDeviation="8.5" result="effect1_foregroundBlur_401_7616"/>
</filter>
<filter id="filter1_b_401_7616" x="-23.0494" y="-23.5873" width="89.6537" height="90.1221" filterUnits="userSpaceOnUse" color-interpolation-filters="sRGB">
<feFlood flood-opacity="0" result="BackgroundImageFix"/>
<feGaussianBlur in="BackgroundImage" stdDeviation="12"/>
<feComposite in2="SourceAlpha" operator="in" result="effect1_backgroundBlur_401_7616"/>
<feBlend mode="normal" in="SourceGraphic" in2="effect1_backgroundBlur_401_7616" result="shape"/>
</filter>
<filter id="filter2_bd_401_7616" x="-4.94006" y="3.95184" width="53.3563" height="35.1437" filterUnits="userSpaceOnUse" color-interpolation-filters="sRGB">
<feFlood flood-opacity="0" result="BackgroundImageFix"/>
<feGaussianBlur in="BackgroundImage" stdDeviation="7.5"/>
<feComposite in2="SourceAlpha" operator="in" result="effect1_backgroundBlur_401_7616"/>
<feColorMatrix in="SourceAlpha" type="matrix" values="0 0 0 0 0 0 0 0 0 0 0 0 0 0 0 0 0 0 127 0" result="hardAlpha"/>
<feOffset dx="5" dy="5"/>
<feGaussianBlur stdDeviation="5"/>
<feColorMatrix type="matrix" values="0 0 0 0 0.577356 0 0 0 0 0.359375 0 0 0 0 0.9375 0 0 0 0.5 0"/>
<feBlend mode="normal" in2="effect1_backgroundBlur_401_7616" result="effect2_dropShadow_401_7616"/>
<feBlend mode="normal" in="SourceGraphic" in2="effect2_dropShadow_401_7616" result="shape"/>
</filter>
<linearGradient id="paint0_linear_401_7616" x1="33.5117" y1="13.7134" x2="33.5117" y2="45.1561" gradientUnits="userSpaceOnUse">
<stop stop-color="#9BF763"/>
<stop offset="1" stop-color="#26AB5B"/>
</linearGradient>
<linearGradient id="paint1_linear_401_7616" x1="8.26277" y1="6.08699" x2="33.9181" y2="37.4908" gradientUnits="userSpaceOnUse">
<stop stop-color="white" stop-opacity="0.25"/>
<stop offset="1" stop-color="white" stop-opacity="0"/>
</linearGradient>
<linearGradient id="paint2_linear_401_7616" x1="31.7603" y1="19.8807" x2="6.27453" y2="23.6538" gradientUnits="userSpaceOnUse">
<stop stop-color="white"/>
<stop offset="1" stop-color="white" stop-opacity="0.2"/>
</linearGradient>
<linearGradient id="paint3_linear_401_7616" x1="13.7779" y1="19.5511" x2="14.935" y2="26.0584" gradientUnits="userSpaceOnUse">
<stop stop-color="white" stop-opacity="0.25"/>
<stop offset="1" stop-color="white" stop-opacity="0"/>
</linearGradient>
</defs>
</svg>
