<svg width="84" height="103" viewBox="0 0 84 103" fill="none" xmlns="http://www.w3.org/2000/svg">
<path d="M24.9332 44.2772C21.2732 41.107 19.4433 39.5219 18.3661 37.702C16.531 34.6016 16.0648 30.8787 17.0788 27.4215C17.674 25.3922 19.0566 23.4048 21.8218 19.43C24.5871 15.4552 25.9697 13.4679 27.6655 12.2041C30.5544 10.0514 34.2071 9.19396 37.7521 9.83655C39.8331 10.2137 41.9556 11.3784 46.2006 13.7077L58.2715 20.3311C64.738 23.8794 67.9713 25.6536 69.7175 28.1774C71.5872 30.8797 72.3642 34.1898 71.8921 37.4418C71.4512 40.479 69.345 43.5065 65.1326 49.5614C60.9202 55.6163 58.814 58.6438 56.1196 60.1133C53.2346 61.6867 49.8609 62.1091 46.677 61.2957C43.7035 60.5359 40.9158 58.1213 35.3405 53.2919L24.9332 44.2772Z" fill="url(#paint0_linear_401_8223)"/>
<g opacity="0.5" filter="url(#filter0_f_401_8223)">
<path d="M31.0722 40.3758C26.7944 36.6704 26.001 30.3348 29.2331 25.689C32.4652 21.0431 38.6814 19.584 43.6431 22.3065L50.7781 26.2216C56.9942 29.6325 58.8829 37.6788 54.8336 43.4993C50.7843 49.3197 42.5833 50.3466 37.2238 45.7043L31.0722 40.3758Z" fill="#0062FF"/>
</g>
<g filter="url(#filter1_b_401_8223)">
<mask id="path-3-outside-1_401_8223" maskUnits="userSpaceOnUse" x="0" y="27" width="84" height="76" fill="black">
<rect fill="white" y="27" width="84" height="76"/>
<path d="M79.6042 70.7786C76.2518 70.7786 73.5241 68.0758 73.5241 64.754C73.5241 61.4282 76.2518 58.7255 79.6042 58.7255C80.4168 58.7255 81.1967 58.4058 81.7683 57.8394C82.3441 57.2689 82.6667 56.4961 82.6667 55.691L82.6626 44.7586C82.6626 35.5175 75.0717 28 65.7453 28H17.9213C8.595 28 1.00408 35.5175 1.00408 44.7586L1 56.043C1 56.8481 1.32258 57.6209 1.89833 58.1914C2.47 58.7578 3.24992 59.0775 4.0625 59.0775C7.52925 59.0775 10.1426 61.5172 10.1426 64.754C10.1426 68.0758 7.41492 70.7786 4.0625 70.7786C2.372 70.7786 1 72.138 1 73.8131V84.7373C1 93.9785 8.58683 101.5 17.9173 101.5H65.7494C75.0798 101.5 82.6667 93.9785 82.6667 84.7373V73.8131C82.6667 72.138 81.2947 70.7786 79.6042 70.7786Z"/>
</mask>
<path d="M79.6042 70.7786C76.2518 70.7786 73.5241 68.0758 73.5241 64.754C73.5241 61.4282 76.2518 58.7255 79.6042 58.7255C80.4168 58.7255 81.1967 58.4058 81.7683 57.8394C82.3441 57.2689 82.6667 56.4961 82.6667 55.691L82.6626 44.7586C82.6626 35.5175 75.0717 28 65.7453 28H17.9213C8.595 28 1.00408 35.5175 1.00408 44.7586L1 56.043C1 56.8481 1.32258 57.6209 1.89833 58.1914C2.47 58.7578 3.24992 59.0775 4.0625 59.0775C7.52925 59.0775 10.1426 61.5172 10.1426 64.754C10.1426 68.0758 7.41492 70.7786 4.0625 70.7786C2.372 70.7786 1 72.138 1 73.8131V84.7373C1 93.9785 8.58683 101.5 17.9173 101.5H65.7494C75.0798 101.5 82.6667 93.9785 82.6667 84.7373V73.8131C82.6667 72.138 81.2947 70.7786 79.6042 70.7786Z" fill="#3EA0FE" fill-opacity="0.35"/>
<path d="M79.6042 71.7786C80.1565 71.7786 80.6042 71.3309 80.6042 70.7786C80.6042 70.2263 80.1565 69.7786 79.6042 69.7786V71.7786ZM81.7683 57.8394L81.0645 57.1291L81.7683 57.8394ZM82.6667 55.691H83.6667V55.6906L82.6667 55.691ZM82.6626 44.7586H81.6626V44.759L82.6626 44.7586ZM1.00408 44.7586L2.00408 44.759V44.7586H1.00408ZM1 56.043L0 56.0426V56.043H1ZM1.89833 58.1914L2.60219 57.4811L1.89833 58.1914ZM79.6042 69.7786C79.0519 69.7786 78.6042 70.2263 78.6042 70.7786C78.6042 71.3309 79.0519 71.7786 79.6042 71.7786V69.7786ZM79.6042 69.7786C76.7954 69.7786 74.5241 67.5149 74.5241 64.754H72.5241C72.5241 68.6367 75.7081 71.7786 79.6042 71.7786V69.7786ZM74.5241 64.754C74.5241 61.9887 76.7958 59.7255 79.6042 59.7255V57.7255C75.7077 57.7255 72.5241 60.8677 72.5241 64.754H74.5241ZM79.6042 59.7255C80.6779 59.7255 81.7115 59.3035 82.4722 58.5497L81.0645 57.1291C80.6818 57.5082 80.1556 57.7255 79.6042 57.7255V59.7255ZM82.4722 58.5497C83.2366 57.7924 83.6667 56.7642 83.6667 55.691H81.6667C81.6667 56.228 81.4516 56.7455 81.0645 57.1291L82.4722 58.5497ZM83.6667 55.6906L83.6626 44.7582L81.6626 44.759L81.6667 55.6913L83.6667 55.6906ZM83.6626 44.7586C83.6626 34.9563 75.615 27 65.7453 27V29C74.5284 29 81.6626 36.0787 81.6626 44.7586H83.6626ZM65.7453 27H17.9213V29H65.7453V27ZM17.9213 27C8.05171 27 0.00408334 34.9563 0.00408334 44.7586H2.00408C2.00408 36.0787 9.1383 29 17.9213 29V27ZM0.0040834 44.7583L5.96046e-08 56.0426L2 56.0433L2.00408 44.759L0.0040834 44.7583ZM0 56.043C0 57.1162 0.430116 58.1444 1.19448 58.9017L2.60219 57.4811C2.21505 57.0975 2 56.58 2 56.043H0ZM1.19448 58.9017C1.95515 59.6555 2.98875 60.0775 4.0625 60.0775V58.0775C3.51108 58.0775 2.98485 57.8602 2.60219 57.4811L1.19448 58.9017ZM4.0625 60.0775C7.04277 60.0775 9.14258 62.1331 9.14258 64.754H11.1426C11.1426 60.9014 8.01573 58.0775 4.0625 58.0775V60.0775ZM9.14258 64.754C9.14258 67.5149 6.87131 69.7786 4.0625 69.7786V71.7786C7.95853 71.7786 11.1426 68.6367 11.1426 64.754H9.14258ZM4.0625 69.7786C1.82839 69.7786 0 71.5771 0 73.8131H2C2 72.699 2.91561 71.7786 4.0625 71.7786V69.7786ZM0 73.8131V84.7373H2V73.8131H0ZM0 84.7373C0 94.5392 8.04307 102.5 17.9173 102.5V100.5C9.1306 100.5 2 93.4177 2 84.7373H0ZM17.9173 102.5H65.7494V100.5H17.9173V102.5ZM65.7494 102.5C75.6236 102.5 83.6667 94.5392 83.6667 84.7373H81.6667C81.6667 93.4177 74.5361 100.5 65.7494 100.5V102.5ZM83.6667 84.7373V73.8131H81.6667V84.7373H83.6667ZM83.6667 73.8131C83.6667 71.5771 81.8383 69.7786 79.6042 69.7786V71.7786C80.7511 71.7786 81.6667 72.699 81.6667 73.8131H83.6667Z" fill="url(#paint1_linear_401_8223)" mask="url(#path-3-outside-1_401_8223)"/>
</g>
<g filter="url(#filter2_bd_401_8223)">
<path d="M55.8412 63.0701L51.0269 67.7577L52.1662 74.385C52.3622 75.5324 51.9007 76.6635 50.9575 77.3413C50.0224 78.0273 48.8015 78.1131 47.7725 77.5659L41.8312 74.4421L35.8777 77.57C35.4367 77.8027 34.9549 77.9252 34.4772 77.9252C33.8524 77.9252 33.2358 77.7292 32.705 77.3454C31.7658 76.6635 31.3044 75.5324 31.5004 74.385L32.6356 67.7577L27.8213 63.0701C26.9883 62.2615 26.6984 61.0733 27.0577 59.9667C27.4212 58.8642 28.3603 58.0802 29.5077 57.9169L36.1472 56.9491L39.124 50.9181C39.6426 49.8809 40.6797 49.2357 41.8312 49.2357H41.8394C42.995 49.2398 44.0322 49.885 44.5426 50.9221L47.5193 56.9491L54.1711 57.921C55.3062 58.0802 56.2454 58.8642 56.6047 59.9667C56.9682 61.0733 56.6782 62.2615 55.8412 63.0701Z" fill="url(#paint2_linear_401_8223)"/>
<path d="M55.7714 62.9984L55.7717 62.9981C56.581 62.2165 56.8613 61.0684 56.5097 59.9979L56.5097 59.9977C56.1621 58.9315 55.2544 58.1739 54.1572 58.02L54.1566 58.0199L47.5049 57.0481L47.4529 57.0405L47.4297 56.9934L44.4529 50.9664L44.4528 50.9663C43.9593 49.9634 42.9569 49.3397 41.8392 49.3357H41.8312C40.7181 49.3357 39.7154 49.959 39.2136 50.9625C39.2135 50.9626 39.2135 50.9627 39.2134 50.9628L36.2369 56.9934L36.2137 57.0405L36.1617 57.0481L29.5222 58.0158L29.5218 58.0159C28.412 58.1739 27.5043 58.9316 27.1528 59.9978C26.8052 61.0684 27.0857 62.2167 27.891 62.9983L27.8911 62.9984L32.7053 67.6861L32.743 67.7228L32.7341 67.7746L31.599 74.4018C31.4094 75.5117 31.8553 76.6048 32.7636 77.2643C33.2775 77.6359 33.8736 77.8252 34.4772 77.8252C34.9379 77.8252 35.4037 77.7071 35.8311 77.4815L35.8312 77.4814L41.7847 74.3536L41.8313 74.3292L41.8778 74.3536L47.819 77.4774L47.8194 77.4776C48.8148 78.0069 49.9944 77.9238 50.8983 77.2607L50.8991 77.2601C51.8111 76.6047 52.2572 75.5118 52.0676 74.4019L55.7714 62.9984ZM55.7714 62.9984L50.9571 67.6861L50.9194 67.7228L50.9284 67.7747L52.0676 74.4018L55.7714 62.9984Z" stroke="url(#paint3_linear_401_8223)" stroke-opacity="0.5" stroke-width="0.2"/>
</g>
<defs>
<filter id="filter0_f_401_8223" x="7.25049" y="0.940674" width="69.7227" height="67.6779" filterUnits="userSpaceOnUse" color-interpolation-filters="sRGB">
<feFlood flood-opacity="0" result="BackgroundImageFix"/>
<feBlend mode="normal" in="SourceGraphic" in2="BackgroundImageFix" result="shape"/>
<feGaussianBlur stdDeviation="10" result="effect1_foregroundBlur_401_8223"/>
</filter>
<filter id="filter1_b_401_8223" x="-24" y="3" width="131.667" height="123.5" filterUnits="userSpaceOnUse" color-interpolation-filters="sRGB">
<feFlood flood-opacity="0" result="BackgroundImageFix"/>
<feGaussianBlur in="BackgroundImage" stdDeviation="12"/>
<feComposite in2="SourceAlpha" operator="in" result="effect1_backgroundBlur_401_8223"/>
<feBlend mode="normal" in="SourceGraphic" in2="effect1_backgroundBlur_401_8223" result="shape"/>
</filter>
<filter id="filter2_bd_401_8223" x="11.9062" y="34.2357" width="59.8525" height="58.6895" filterUnits="userSpaceOnUse" color-interpolation-filters="sRGB">
<feFlood flood-opacity="0" result="BackgroundImageFix"/>
<feGaussianBlur in="BackgroundImage" stdDeviation="7.5"/>
<feComposite in2="SourceAlpha" operator="in" result="effect1_backgroundBlur_401_8223"/>
<feColorMatrix in="SourceAlpha" type="matrix" values="0 0 0 0 0 0 0 0 0 0 0 0 0 0 0 0 0 0 127 0" result="hardAlpha"/>
<feOffset dx="5" dy="5"/>
<feGaussianBlur stdDeviation="5"/>
<feColorMatrix type="matrix" values="0 0 0 0 0.15375 0 0 0 0 0.522433 0 0 0 0 0.9 0 0 0 0.5 0"/>
<feBlend mode="normal" in2="effect1_backgroundBlur_401_8223" result="effect2_dropShadow_401_8223"/>
<feBlend mode="normal" in="SourceGraphic" in2="effect2_dropShadow_401_8223" result="shape"/>
</filter>
<linearGradient id="paint0_linear_401_8223" x1="32.8094" y1="3.6365" x2="28.2202" y2="63.4121" gradientUnits="userSpaceOnUse">
<stop stop-color="#39AFFD"/>
<stop offset="1" stop-color="#477FFF"/>
</linearGradient>
<linearGradient id="paint1_linear_401_8223" x1="14" y1="36.5628" x2="73.6371" y2="104.064" gradientUnits="userSpaceOnUse">
<stop stop-color="white" stop-opacity="0.25"/>
<stop offset="1" stop-color="white" stop-opacity="0"/>
</linearGradient>
<linearGradient id="paint2_linear_401_8223" x1="54.6422" y1="54.4165" x2="21.3923" y2="55.5445" gradientUnits="userSpaceOnUse">
<stop stop-color="white"/>
<stop offset="1" stop-color="white" stop-opacity="0.2"/>
</linearGradient>
<linearGradient id="paint3_linear_401_8223" x1="30.122" y1="58.8597" x2="55.4708" y2="59.0053" gradientUnits="userSpaceOnUse">
<stop stop-color="white"/>
<stop offset="1" stop-color="white" stop-opacity="0"/>
</linearGradient>
</defs>
</svg>
