<svg width="53" height="56" viewBox="0 0 53 56" fill="none" xmlns="http://www.w3.org/2000/svg">
<g filter="url(#filter0_b_401_7590)">
<path fill-rule="evenodd" clip-rule="evenodd" d="M9.82497 18.5212C9.82497 23.561 14.0237 27.5998 19.2631 27.5998C24.5006 27.5998 28.7012 23.561 28.7012 18.5212C28.7012 13.4814 24.5006 9.44263 19.2631 9.44263C14.0237 9.44263 9.82497 13.4814 9.82497 18.5212ZM33.527 37.8789C33.527 33.2136 26.9564 32.0463 19.2635 32.0463C11.5288 32.0463 4.99994 33.2538 4.99994 37.9228C4.99994 42.5881 11.5705 43.7553 19.2635 43.7553C26.9982 43.7553 33.527 42.5479 33.527 37.8789Z" fill="url(#paint0_linear_401_7590)"/>
</g>
<g filter="url(#filter1_f_401_7590)">
<path d="M22.3613 35.0385C27.0582 35.0385 31.0699 35.8137 31.0699 38.9121C31.0699 42.0129 27.0837 42.8148 22.3613 42.8148C17.6643 42.8148 13.6526 42.0396 13.6526 38.9412C13.6526 35.8404 17.6388 35.0385 22.3613 35.0385Z" fill="#3EA0FE" fill-opacity="0.5"/>
</g>
<g filter="url(#filter2_f_401_7590)">
<path d="M21.5695 23.1149C18.9325 23.1149 16.8193 21.0393 16.8193 18.4492C16.8193 15.859 18.9325 13.7834 21.5695 13.7834C24.2055 13.7834 26.3197 15.859 26.3197 18.4492C26.3197 21.0393 24.2055 23.1149 21.5695 23.1149Z" fill="#3EA0FE" fill-opacity="0.5"/>
</g>
<g filter="url(#filter3_b_401_7590)">
<mask id="path-4-outside-1_401_7590" maskUnits="userSpaceOnUse" x="13" y="5" width="40" height="47" fill="black">
<rect fill="white" x="13" y="5" width="40" height="47"/>
<path fill-rule="evenodd" clip-rule="evenodd" d="M20.9169 17.906C20.9169 24.5154 26.4232 29.812 33.2944 29.812C40.1631 29.812 45.6719 24.5154 45.6719 17.906C45.6719 11.2966 40.1631 6 33.2944 6C26.4232 6 20.9169 11.2966 20.9169 17.906ZM52 43.2934C52 37.1751 43.383 35.6443 33.2942 35.6443C23.1506 35.6443 14.5884 37.2278 14.5884 43.3509C14.5884 49.4692 23.2054 51 33.2942 51C43.4378 51 52 49.4165 52 43.2934Z"/>
</mask>
<path fill-rule="evenodd" clip-rule="evenodd" d="M20.9169 17.906C20.9169 24.5154 26.4232 29.812 33.2944 29.812C40.1631 29.812 45.6719 24.5154 45.6719 17.906C45.6719 11.2966 40.1631 6 33.2944 6C26.4232 6 20.9169 11.2966 20.9169 17.906ZM52 43.2934C52 37.1751 43.383 35.6443 33.2942 35.6443C23.1506 35.6443 14.5884 37.2278 14.5884 43.3509C14.5884 49.4692 23.2054 51 33.2942 51C43.4378 51 52 49.4165 52 43.2934Z" fill="#3EA0FE" fill-opacity="0.3"/>
<path d="M33.2944 30.812C25.9079 30.812 19.9169 25.104 19.9169 17.906H21.9169C21.9169 23.9269 26.9386 28.812 33.2944 28.812V30.812ZM46.6719 17.906C46.6719 25.1041 40.6783 30.812 33.2944 30.812V28.812C39.6479 28.812 44.6719 23.9268 44.6719 17.906H46.6719ZM33.2944 5C40.6783 5 46.6719 10.708 46.6719 17.906H44.6719C44.6719 11.8853 39.6479 7 33.2944 7V5ZM19.9169 17.906C19.9169 10.7081 25.9079 5 33.2944 5V7C26.9386 7 21.9169 11.8852 21.9169 17.906H19.9169ZM33.2942 34.6443C38.36 34.6443 43.1723 35.0249 46.7489 36.2266C48.5423 36.8291 50.0993 37.662 51.2167 38.8239C52.3578 40.0104 53 41.5003 53 43.2934H51C51 42.0274 50.5651 41.0316 49.7752 40.2103C48.9617 39.3644 47.7339 38.6674 46.1119 38.1225C42.8579 37.0292 38.3173 36.6443 33.2942 36.6443V34.6443ZM13.5884 43.3509C13.5884 41.559 14.2254 40.0662 15.3605 38.874C16.4728 37.7059 18.0241 36.865 19.815 36.2549C23.386 35.0383 28.1995 34.6443 33.2942 34.6443V36.6443C28.2453 36.6443 23.7059 37.0422 20.46 38.148C18.8423 38.6992 17.6192 39.4023 16.809 40.2532C16.0218 41.08 15.5884 42.0813 15.5884 43.3509H13.5884ZM33.2942 52C28.2284 52 23.4161 51.6194 19.8395 50.4178C18.0461 49.8152 16.4892 48.9824 15.3717 47.8204C14.2306 46.6339 13.5884 45.144 13.5884 43.3509H15.5884C15.5884 44.617 16.0234 45.6128 16.8132 46.4341C17.6267 47.2799 18.8546 47.977 20.4765 48.5219C23.7306 49.6152 28.2712 50 33.2942 50V52ZM53 43.2934C53 45.0854 52.363 46.5781 51.2279 47.7703C50.1157 48.9385 48.5643 49.7793 46.7735 50.3894C43.2024 51.6061 38.3889 52 33.2942 52V50C38.3431 50 42.8826 49.6022 46.1285 48.4963C47.7461 47.9452 48.9693 47.2421 49.7794 46.3912C50.5667 45.5644 51 44.563 51 43.2934H53Z" fill="url(#paint1_linear_401_7590)" mask="url(#path-4-outside-1_401_7590)"/>
</g>
<defs>
<filter id="filter0_b_401_7590" x="-8" y="-3.55737" width="54.527" height="60.3127" filterUnits="userSpaceOnUse" color-interpolation-filters="sRGB">
<feFlood flood-opacity="0" result="BackgroundImageFix"/>
<feGaussianBlur in="BackgroundImage" stdDeviation="6.5"/>
<feComposite in2="SourceAlpha" operator="in" result="effect1_backgroundBlur_401_7590"/>
<feBlend mode="normal" in="SourceGraphic" in2="effect1_backgroundBlur_401_7590" result="shape"/>
</filter>
<filter id="filter1_f_401_7590" x="0.652588" y="22.0385" width="43.4174" height="33.7763" filterUnits="userSpaceOnUse" color-interpolation-filters="sRGB">
<feFlood flood-opacity="0" result="BackgroundImageFix"/>
<feBlend mode="normal" in="SourceGraphic" in2="BackgroundImageFix" result="shape"/>
<feGaussianBlur stdDeviation="6.5" result="effect1_foregroundBlur_401_7590"/>
</filter>
<filter id="filter2_f_401_7590" x="1.81934" y="-1.21661" width="39.5004" height="39.3315" filterUnits="userSpaceOnUse" color-interpolation-filters="sRGB">
<feFlood flood-opacity="0" result="BackgroundImageFix"/>
<feBlend mode="normal" in="SourceGraphic" in2="BackgroundImageFix" result="shape"/>
<feGaussianBlur stdDeviation="7.5" result="effect1_foregroundBlur_401_7590"/>
</filter>
<filter id="filter3_b_401_7590" x="-1.41162" y="-10" width="69.4116" height="77" filterUnits="userSpaceOnUse" color-interpolation-filters="sRGB">
<feFlood flood-opacity="0" result="BackgroundImageFix"/>
<feGaussianBlur in="BackgroundImage" stdDeviation="7.5"/>
<feComposite in2="SourceAlpha" operator="in" result="effect1_backgroundBlur_401_7590"/>
<feBlend mode="normal" in="SourceGraphic" in2="effect1_backgroundBlur_401_7590" result="shape"/>
</filter>
<linearGradient id="paint0_linear_401_7590" x1="17.1633" y1="28.8967" x2="43.8026" y2="39.6653" gradientUnits="userSpaceOnUse">
<stop stop-color="#477FFF"/>
<stop offset="1" stop-color="#39AFFD"/>
</linearGradient>
<linearGradient id="paint1_linear_401_7590" x1="46.0447" y1="11.2426" x2="16.6927" y2="41.4654" gradientUnits="userSpaceOnUse">
<stop stop-color="white" stop-opacity="0.25"/>
<stop offset="1" stop-color="white" stop-opacity="0"/>
</linearGradient>
</defs>
</svg>
