<svg width="65" height="60" viewBox="0 0 65 60" fill="none" xmlns="http://www.w3.org/2000/svg">
<path d="M33.6049 31.4387C33.3601 31.9435 33.3796 32.5374 33.6554 33.0262L37.5753 39.7427C37.907 40.3122 37.8746 41.0226 37.4929 41.5607C37.1263 42.1082 36.4773 42.3944 35.8257 42.3009L28.1227 41.2842C27.854 41.2463 27.5807 41.2731 27.3223 41.359L26.9262 41.5034C26.7963 41.5739 26.6778 41.6668 26.5796 41.7787L21.3419 47.5303C21.0804 47.8077 20.7388 47.9968 20.3629 48.0692C19.4381 48.2209 18.5604 47.6071 18.3852 46.6859L17.0652 39.0217C16.9602 38.4657 16.5919 37.9956 16.0776 37.7609L8.93617 34.5695C8.33876 34.3021 7.95095 33.7151 7.94116 33.0614C7.92605 32.4113 8.27191 31.8068 8.84085 31.4918L15.7199 27.7908C16.2516 27.5325 16.6142 27.0195 16.6816 26.4321L17.4904 18.7039C17.5131 18.5301 17.5621 18.3599 17.6389 18.2028L17.7331 18.0526C17.7741 17.9515 17.8301 17.8599 17.8992 17.7768L18.0371 17.6603L18.2483 17.4675L18.8635 17.2432C19.4338 17.0999 20.0374 17.2524 20.4692 17.6513L26.093 23.0018C26.501 23.3945 27.0764 23.5605 27.6303 23.4497L35.2775 21.8561C35.9233 21.72 36.5907 21.9569 37.0069 22.4674C37.4119 22.9836 37.4811 23.6868 37.185 24.2732L33.6049 31.4387Z" fill="url(#paint0_linear_401_7606)"/>
<g opacity="0.5" filter="url(#filter0_f_401_7606)">
<path d="M26.8694 27.5521C23.5249 27.5521 20.8104 30.2672 20.8104 33.6111C20.8104 36.9563 23.5249 39.6701 26.8694 39.6701C30.22 39.6701 32.9284 36.9563 32.9284 33.6111C32.9284 30.2672 30.22 27.5521 26.8694 27.5521Z" fill="#FF3D22"/>
</g>
<g filter="url(#filter1_b_401_7606)">
<path d="M51.4402 30.3098C50.8232 30.666 50.4204 31.3041 50.3621 32.0146L49.6967 41.8689C49.6397 42.7039 49.0993 43.4277 48.3146 43.7214C47.539 44.0357 46.6528 43.8742 46.0345 43.3114L38.661 36.7534C38.4055 36.5222 38.099 36.3556 37.7661 36.2617L37.2469 36.1313C37.0601 36.1128 36.8694 36.126 36.6863 36.1737L27.0815 38.4878C26.6089 38.5931 26.115 38.5485 25.6682 38.3568C24.5879 37.8572 24.1027 36.5865 24.5749 35.4932L28.6487 26.4954C28.9346 25.836 28.8823 25.0794 28.5088 24.4661L23.2755 16.022C22.8379 15.3153 22.8486 14.4217 23.3041 13.7276C23.7515 13.0334 24.5459 12.6443 25.3684 12.7186L35.2376 13.7299C35.9806 13.8372 36.7274 13.5564 37.2168 12.9868L43.5742 5.43869C43.722 5.27214 43.8946 5.12813 44.0874 5.01768L44.2935 4.9269C44.4086 4.8499 44.5328 4.79351 44.6646 4.75534L44.8927 4.73118L45.2521 4.67891L46.0587 4.88159C46.7603 5.13732 47.2861 5.72775 47.4558 6.45478L49.5552 16.0872C49.7043 16.7907 50.1909 17.3753 50.8522 17.6535L60.0272 21.4276C60.803 21.7447 61.3359 22.4693 61.4096 23.3026C61.4675 24.134 61.0392 24.9226 60.31 25.328L51.4402 30.3098Z" fill="#FFAC95" fill-opacity="0.4"/>
<path d="M50.1956 41.903L50.1956 41.9025L50.8604 32.0555C50.8605 32.0544 50.8606 32.0532 50.8607 32.0521C50.9066 31.5067 51.2159 31.0176 51.6879 30.7441C51.6887 30.7437 51.6894 30.7432 51.6902 30.7428L60.5529 25.765C60.5533 25.7648 60.5536 25.7646 60.554 25.7644C61.4518 25.2647 61.9798 24.2928 61.9084 23.2679L61.9085 23.2678L61.9077 23.2585C61.8175 22.2395 61.166 21.3532 60.2169 20.965C60.2167 20.9649 60.2166 20.9648 60.2164 20.9648L51.0461 17.1927C51.0455 17.1924 51.0449 17.1922 51.0443 17.1919C50.5338 16.9765 50.1591 16.525 50.0444 15.9835L50.0438 15.9807L47.9443 6.34831L47.9444 6.34829L47.9427 6.34113C47.7344 5.44876 47.0892 4.72503 46.2299 4.41182C46.2137 4.40592 46.1972 4.40086 46.1805 4.39666L45.3739 4.19398C45.3106 4.17806 45.2447 4.17471 45.1801 4.18411L44.8303 4.23498L44.6119 4.25812C44.5826 4.26122 44.5537 4.26689 44.5255 4.27507C44.3618 4.32246 44.2039 4.39159 44.0552 4.48553L43.8859 4.5601C43.8698 4.56718 43.854 4.57512 43.8388 4.58386C43.5953 4.72338 43.381 4.90302 43.2002 5.10686L43.2001 5.10675L43.1918 5.11659L36.8375 12.6609C36.837 12.6615 36.8365 12.6621 36.836 12.6627C36.4578 13.1017 35.8816 13.3177 35.309 13.2351C35.3022 13.2341 35.2954 13.2332 35.2886 13.2325L25.4194 12.2212L25.4194 12.2212L25.4134 12.2206C24.4057 12.1296 23.433 12.606 22.885 13.455C22.3235 14.312 22.3112 15.4143 22.8504 16.2852L22.8505 16.2854L28.0818 24.7262C28.0821 24.7267 28.0824 24.7272 28.0827 24.7277C28.3702 25.2008 28.4108 25.784 28.1915 26.2931L24.1194 35.287L24.1194 35.2869L24.1159 35.2949C23.5362 36.637 24.1317 38.1971 25.4583 38.8106L25.4583 38.8108L25.4711 38.8163C26.015 39.0497 26.616 39.1038 27.1902 38.9759L27.1902 38.9759L27.1986 38.9739L36.8034 36.6598L36.8034 36.6599L36.8124 36.6576C36.925 36.6282 37.0444 36.6177 37.1642 36.626L37.6369 36.7448C37.8955 36.8187 38.1307 36.9479 38.3256 37.1242L38.3287 37.127L45.698 43.6812C45.6987 43.6819 45.6995 43.6826 45.7003 43.6833C46.458 44.3713 47.5434 44.5707 48.4962 44.1873C49.4607 43.8235 50.1252 42.9319 50.1956 41.903Z" stroke="url(#paint1_linear_401_7606)" stroke-linecap="round" stroke-linejoin="round"/>
</g>
<defs>
<filter id="filter0_f_401_7606" x="0.810425" y="7.55212" width="52.1179" height="52.118" filterUnits="userSpaceOnUse" color-interpolation-filters="sRGB">
<feFlood flood-opacity="0" result="BackgroundImageFix"/>
<feBlend mode="normal" in="SourceGraphic" in2="BackgroundImageFix" result="shape"/>
<feGaussianBlur stdDeviation="10" result="effect1_foregroundBlur_401_7606"/>
</filter>
<filter id="filter1_b_401_7606" x="-2.04529" y="-20.3211" width="88.4601" height="89.2011" filterUnits="userSpaceOnUse" color-interpolation-filters="sRGB">
<feFlood flood-opacity="0" result="BackgroundImageFix"/>
<feGaussianBlur in="BackgroundImage" stdDeviation="12"/>
<feComposite in2="SourceAlpha" operator="in" result="effect1_backgroundBlur_401_7606"/>
<feBlend mode="normal" in="SourceGraphic" in2="effect1_backgroundBlur_401_7606" result="shape"/>
</filter>
<linearGradient id="paint0_linear_401_7606" x1="9.95353" y1="29.0861" x2="42.05" y2="59.1586" gradientUnits="userSpaceOnUse">
<stop stop-color="#FFA78F"/>
<stop offset="1" stop-color="#F23E2C"/>
</linearGradient>
<linearGradient id="paint1_linear_401_7606" x1="31.6663" y1="5.77409" x2="47.0933" y2="41.4531" gradientUnits="userSpaceOnUse">
<stop stop-color="white" stop-opacity="0.25"/>
<stop offset="1" stop-color="white" stop-opacity="0"/>
</linearGradient>
</defs>
</svg>
