<?xml version="1.0" encoding="UTF-8" standalone="no"?>
<svg
   version="1.0"
   width="480.000000pt"
   height="480.000000pt"
   viewBox="0 0 480.000000 480.000000"
   preserveAspectRatio="xMidYMid meet"
   id="svg6"
   sodipodi:docname="arrow.svg"
   inkscape:version="1.2 (dc2aedaf03, 2022-05-15)"
   xmlns:inkscape="http://www.inkscape.org/namespaces/inkscape"
   xmlns:sodipodi="http://sodipodi.sourceforge.net/DTD/sodipodi-0.dtd"
   xmlns="http://www.w3.org/2000/svg"
   xmlns:svg="http://www.w3.org/2000/svg">
  <defs
     id="defs10" />
  <sodipodi:namedview
     id="namedview8"
     pagecolor="#505050"
     bordercolor="#ffffff"
     borderopacity="1"
     inkscape:showpageshadow="0"
     inkscape:pageopacity="0"
     inkscape:pagecheckerboard="1"
     inkscape:deskcolor="#505050"
     inkscape:document-units="pt"
     showgrid="false"
     inkscape:zoom="1.3234375"
     inkscape:cx="326.42267"
     inkscape:cy="312.82172"
     inkscape:window-width="1920"
     inkscape:window-height="1027"
     inkscape:window-x="-8"
     inkscape:window-y="-8"
     inkscape:window-maximized="1"
     inkscape:current-layer="g4" />
  <g
     transform="translate(0.000000,480.000000) scale(0.100000,-0.100000)"
     fill="#000000"
     stroke="none"
     id="g4">
    <rect
       style="fill:#ffffff;stroke-width:113.386;stroke-linecap:round;stroke-linejoin:round;paint-order:stroke markers fill"
       id="rect286"
       width="3020.543"
       height="2703.1877"
       x="1008.7367"
       y="-3774.262"
       transform="scale(1,-1)" />
    <path
       d="M2260 4639 c-602 -34 -1183 -325 -1572 -788 -476 -566 -643 -1306 -457 -2028 77 -301 244 -621 457 -874 391 -465 976 -756 1579 -788 333 -17 645 30 936 143 825 319 1387 1087 1436 1961 31 566 -137 1096 -487 1539 -72 91 -257 276 -348 348 -354 280 -809 461 -1219 484 -49 2 -115 6 -145 8 -30 1 -111 -1 -180 -5z m847 -1638 c312 -327 568 -597 568 -601 0 -9 -1133 -1194 -1146 -1198 -5 -2 -9 153 -9 392 l0 396 -700 0 -700 0 0 390 0 390 700 0 700 0 0 416 c0 252 4 414 9 412 5 -1 265 -270 578 -597z"
       id="path2"
       style="fill:#2c5aff;fill-opacity:1" />
  </g>
</svg>
