<svg width="40" height="41" viewBox="0 0 40 41" fill="none" xmlns="http://www.w3.org/2000/svg">
<path d="M40 20.5C40 31.5457 31.0457 40.5 20 40.5C8.95431 40.5 0 31.5457 0 20.5C0 9.45431 8.95431 0.5 20 0.5C31.0457 0.5 40 9.45431 40 20.5Z" fill="#C4C4C4"/>
<path fill-rule="evenodd" clip-rule="evenodd" d="M33.9752 29.8833L33.5669 31.5535L6.61653 31.6226L6.24756 29.9314L14.6856 26.9275L15.0546 23.7194C14.4487 22.8445 13.9825 21.882 13.6724 20.8658C11.1834 18.3155 11.5554 14.9872 12.8679 14.8791C12.8679 14.3474 12.8468 13.7947 12.8468 13.215C12.8468 9.36103 15.3268 5.86755 20.1053 5.86755C24.8839 5.86755 27.2731 9.24689 27.2731 13.8097C27.2731 14.1792 27.2731 14.5337 27.2731 14.8821C28.6553 14.759 29.1573 18.0301 26.8255 20.6375C26.587 21.8107 26.1173 22.9255 25.4434 23.9177L25.9636 27.0327L33.9752 29.8833ZM24.2003 28.3814C24.1519 27.7987 24.0763 26.474 24.0219 25.5248C23.2743 26.2178 22.4723 26.8506 21.6236 27.4172L19.0589 27.3781C18.1652 26.8063 17.3251 26.1558 16.5486 25.4346C16.4972 26.483 16.4186 28.033 16.3914 28.6578C16.3067 30.6764 24.3848 30.7214 24.2003 28.3814ZM25.6823 13.0828C25.6823 11.609 25.0928 10.1955 24.0435 9.15332C22.9942 8.11116 21.5711 7.52568 20.0872 7.52568C18.6032 7.52568 17.1801 8.11116 16.1308 9.15332C15.0815 10.1955 14.492 11.609 14.492 13.0828C14.492 20.292 15.3631 22.8453 19.576 25.5578L21.0187 25.6149C25.0351 22.8874 25.6823 20.238 25.6823 13.0828Z" fill="#6D6D6D"/>
</svg>
