<?xml version="1.0" standalone="no"?>
<!DOCTYPE svg PUBLIC "-//W3C//DTD SVG 20010904//EN"
 "http://www.w3.org/TR/2001/REC-SVG-20010904/DTD/svg10.dtd">
<svg version="1.0" xmlns="http://www.w3.org/2000/svg"
 width="72.000000pt" height="72.000000pt" viewBox="0 0 72.000000 72.000000"
 preserveAspectRatio="xMidYMid meet">
<metadata>
Created by potrace 1.14, written by Peter Selinger 2001-2017
</metadata>
<g transform="translate(0.000000,72.000000) scale(0.100000,-0.100000)"
fill="#000000" stroke="none">
<path d="M256 663 c-3 -7 -18 -13 -33 -13 -17 0 -34 -8 -43 -20 -8 -11 -18
-20 -23 -20 -12 0 -37 -27 -37 -39 0 -6 -4 -11 -10 -11 -5 0 -10 -9 -10 -20 0
-11 -4 -20 -10 -20 -5 0 -10 -11 -10 -24 0 -13 -5 -26 -12 -28 -17 -6 -16
-190 0 -196 7 -2 12 -15 12 -28 0 -13 5 -24 10 -24 6 0 10 -18 10 -39 0 -31
-4 -41 -20 -46 -14 -4 -20 -15 -20 -36 l0 -29 65 0 c37 0 65 4 65 10 0 6 16
10 35 10 19 0 35 -4 35 -10 0 -6 40 -10 100 -10 60 0 100 4 100 10 0 6 11 10
25 10 14 0 25 5 25 10 0 6 7 10 15 10 8 0 33 18 55 40 22 22 40 47 40 55 0 8
5 15 10 15 6 0 10 11 10 25 0 14 5 25 10 25 6 0 10 40 10 99 0 56 -4 103 -10
106 -5 3 -10 15 -10 26 0 10 -4 19 -10 19 -5 0 -10 7 -10 16 0 23 -94 114
-117 114 -11 0 -25 6 -31 13 -19 18 -209 18 -216 0z m204 -43 c0 -5 7 -10 15
-10 8 0 15 -4 15 -10 0 -5 9 -10 20 -10 11 0 20 -5 20 -11 0 -14 25 -39 39
-39 6 0 11 -7 11 -15 0 -8 5 -15 10 -15 6 0 10 -13 10 -30 0 -16 5 -30 10 -30
6 0 10 -33 10 -80 0 -47 -4 -80 -10 -80 -5 0 -10 -11 -10 -24 0 -38 -104 -136
-145 -136 -8 0 -15 -4 -15 -10 0 -6 -33 -10 -80 -10 -47 0 -80 4 -80 10 0 6
-9 10 -19 10 -11 0 -23 5 -26 10 -10 17 -40 11 -55 -10 -8 -11 -18 -20 -22
-20 -12 0 -10 38 2 45 14 9 13 34 -3 50 -31 36 -37 46 -37 65 0 11 -4 20 -10
20 -6 0 -10 37 -10 90 0 53 4 90 10 90 6 0 10 9 10 20 0 11 5 20 10 20 6 0 10
7 10 15 0 8 5 15 11 15 6 0 17 6 25 14 8 8 14 19 14 25 0 6 7 11 15 11 8 0 15
5 15 10 0 6 9 10 20 10 11 0 20 5 20 10 0 6 40 10 100 10 60 0 100 -4 100 -10z"/>
<path d="M286 575 c-8 -8 -22 -15 -30 -15 -9 0 -16 -4 -16 -10 0 -5 -5 -10
-11 -10 -14 0 -39 -25 -39 -39 0 -6 -4 -11 -10 -11 -5 0 -10 -9 -10 -20 0 -11
-4 -20 -10 -20 -14 0 -12 -121 3 -153 6 -15 15 -27 20 -27 4 0 7 -7 7 -15 0
-19 36 -55 55 -55 8 0 15 -4 15 -10 0 -5 9 -10 20 -10 11 0 20 -4 20 -10 0 -6
27 -10 60 -10 33 0 60 4 60 10 0 6 11 10 25 10 14 0 25 5 25 10 0 6 4 10 10
10 15 0 70 58 70 74 0 8 5 18 10 21 6 3 10 40 10 81 0 43 -4 74 -10 74 -5 0
-10 9 -10 20 0 11 -4 20 -10 20 -5 0 -10 5 -10 11 0 14 -25 39 -39 39 -6 0
-11 5 -11 10 0 6 -7 10 -16 10 -8 0 -22 7 -30 15 -10 10 -35 15 -74 15 -39 0
-64 -5 -74 -15z m126 -61 c12 -11 -5 -44 -23 -44 -14 0 -19 7 -19 25 0 18 5
25 18 25 10 0 21 -3 24 -6z m-82 -30 c0 -8 -4 -14 -10 -14 -5 0 -10 9 -10 21
0 11 5 17 10 14 6 -3 10 -13 10 -21z m-70 -29 c0 -26 -31 -65 -51 -65 -22 0
-27 42 -6 65 17 19 57 19 57 0z m256 0 c9 -8 14 -25 12 -37 -4 -30 -38 -37
-45 -9 -3 12 -9 21 -14 21 -5 0 -9 9 -9 20 0 24 34 27 56 5z m-188 -32 c-2
-20 -9 -28 -23 -28 -14 0 -21 8 -23 28 -3 23 0 27 23 27 23 0 26 -4 23 -27z
m110 0 c-3 -32 -25 -40 -52 -20 -17 12 -18 16 -5 30 8 9 24 16 37 17 20 0 23
-4 20 -27z m-198 -83 c0 -11 5 -20 10 -20 6 0 10 -11 10 -25 0 -20 -5 -25 -25
-25 -18 0 -25 5 -25 20 0 11 -4 20 -10 20 -5 0 -10 11 -10 25 0 20 5 25 25 25
18 0 25 -5 25 -20z m90 -5 c0 -24 -31 -51 -44 -38 -3 3 -6 19 -6 35 0 23 4 28
25 28 20 0 25 -5 25 -25z m110 1 c0 -28 -26 -41 -49 -24 -9 7 -18 13 -20 15
-10 6 27 32 47 33 17 0 22 -6 22 -24z m90 -1 c0 -14 -4 -25 -10 -25 -5 0 -10
-9 -10 -20 0 -15 -7 -20 -25 -20 -18 0 -25 5 -25 19 0 11 5 23 10 26 6 3 10
15 10 26 0 14 7 19 25 19 20 0 25 -5 25 -25z m-200 -75 c0 -5 -7 -10 -15 -10
-8 0 -15 5 -15 10 0 6 7 10 15 10 8 0 15 -4 15 -10z m90 1 c0 -15 -31 -42 -41
-36 -5 4 -9 15 -9 26 0 14 7 19 25 19 14 0 25 -4 25 -9z"/>
</g>
</svg>
